# xmcd
#
# Track frame offsets:
#	150
#	15199
#	26723
#	47551
#	65893
#	82538
#	105090
#	124778
#	141128
#	154328
#
# Disc length: 2203 seconds
# Revision: 0
# Processed by: cddbd v1.5.2PL0 Copyright (c) Steve Scherf et al.
# Submitted via: dBpowerAMP V12.0
#
DISCID=7008990a
DTITLE=Hillfillies - There She Goes
DYEAR=2013
DGENRE=Bluegrass
TTITLE0=Listen Sister
TTITLE1=My Way Home
TTITLE2=There She Goes
TTITLE3=Just A Few Old Memories
TTITLE4=Walk A Mile In My Shoes
TTITLE5=Dimming Of The Day
TTITLE6=I Used To Love You
TTITLE7=Southbound Train
TTITLE8=Dark Skies
TTITLE9=The Pain Of Loving You
EXTD=
EXTT0=
EXTT1=
EXTT2=
EXTT3=
EXTT4=
EXTT5=
EXTT6=
EXTT7=
EXTT8=
EXTT9=
PLAYORDER=
